<svg width="824" height="510" viewBox="0 0 824 510" fill="none" xmlns="http://www.w3.org/2000/svg">
<path d="M538 116C538 179.473 484.314 231 418 231C351.686 231 298 179.473 298 116C298 52.5266 351.686 1 418 1C484.314 1 538 52.5266 538 116Z" fill="white" stroke="black" stroke-width="2"/>
<path d="M514.912 116.426C514.912 167.891 471.559 209.676 418 209.676C364.441 209.676 321.088 167.891 321.088 116.426C321.088 64.9615 364.441 23.1765 418 23.1765C471.559 23.1765 514.912 64.9615 514.912 116.426Z" fill="white" stroke="black" stroke-width="2"/>
<g clip-path="url(#clip0_1_43)">
<path d="M431.552 156.088L432.6 62.2816C432.6 62.2816 449.77 59.9661 449.77 109.535L443.583 114.492L444.177 156.088H431.552Z" fill="#8B8B8B"/>
<path d="M408.674 92.3012C408.674 93.7866 407.652 95.1128 406.203 95.5603H396.069C394.621 95.1128 393.598 93.7866 393.598 92.3012V62.2647H387.085V92.3012C387.085 96.8595 390.309 100.746 394.926 101.752L395.28 101.829H395.6L394.824 156.088H407.449L406.673 101.829H406.992L407.347 101.752C411.964 100.746 415.188 96.8597 415.188 92.3012V62.2647H408.674V92.3012H408.674Z" fill="#8B8B8B"/>
<path d="M404.393 62.2647H397.88V90.5934H404.393V62.2647Z" fill="#8B8B8B"/>
<path d="M408.674 62.2647V92.3012C408.674 93.7867 407.652 95.1128 406.203 95.5603H401.136V156.088H407.449L406.673 101.829H406.992L407.347 101.752C411.963 100.746 415.187 96.8598 415.187 92.3012V62.2647H408.674Z" fill="#6F6F6F"/>
<path d="M404.393 62.2647H401.137V90.5934H404.393V62.2647Z" fill="#6F6F6F"/>
<path d="M443.583 114.492L449.77 109.535C449.77 78.2094 442.912 67.6053 437.865 64.043V156.088H444.177L443.583 114.492Z" fill="#6F6F6F"/>
</g>
<rect x="36" y="414" width="244" height="90" rx="5" fill="#A90606"/>
<rect x="542" y="414" width="244" height="90" rx="5" fill="#A90606"/>
<rect x="233" y="377" width="352" height="90" rx="5" fill="#A90606"/>
<path d="M1.48485 439.166L39.1492 414.067L40.2989 462.447L1.48485 439.166Z" fill="#A90606"/>
<path d="M1.6154 483.108L39.3216 459.772L40.3876 504.626L1.6154 483.108Z" fill="#A90606"/>
<path d="M823.096 482.044L784.763 504.292L784.929 459.511L823.096 482.044Z" fill="#A90606"/>
<path d="M823.275 435.902L785.267 458.744L784.786 413.88L823.275 435.902Z" fill="#A90606"/>
<path d="M276.5 392L284.021 412.729H308.36L288.67 425.541L296.191 446.271L276.5 433.459L256.809 446.271L264.33 425.541L244.64 412.729H268.979L276.5 392Z" fill="#FAC508"/>
<path d="M541.5 392L549.021 412.729H573.36L553.67 425.541L561.191 446.271L541.5 433.459L521.809 446.271L529.33 425.541L509.64 412.729H533.979L541.5 392Z" fill="#FAC508"/>
<path d="M343.5 392L351.021 412.729H375.36L355.67 425.541L363.191 446.271L343.5 433.459L323.809 446.271L331.33 425.541L311.64 412.729H335.979L343.5 392Z" fill="#FAC508"/>
<path d="M408.5 392L416.021 412.729H440.36L420.67 425.541L428.191 446.271L408.5 433.459L388.809 446.271L396.33 425.541L376.64 412.729H400.979L408.5 392Z" fill="#FAC508"/>
<path d="M474.5 392L482.021 412.729H506.36L486.67 425.541L494.191 446.271L474.5 433.459L454.809 446.271L462.33 425.541L442.64 412.729H466.979L474.5 392Z" fill="#FAC508"/>
<path d="M290 383.8C290 384.333 289.133 384.467 287.4 384.2C285.667 384.067 282.667 383.333 278.4 382C268.4 377.6 261.2 369.467 256.8 357.6C252.4 345.733 249.933 331.2 249.4 314C249.267 307.867 249.4 301 249.8 293.4C250.333 285.667 251.067 277.733 252 269.6C252.933 261.333 253.867 253.267 254.8 245.4C255.867 237.533 256.8 230.333 257.6 223.8C258.4 217.133 258.867 211.667 259 207.4C259 204.2 258.6 201.933 257.8 200.6C257.133 199.267 256.267 198.6 255.2 198.6C253.467 198.6 251.467 199.867 249.2 202.4C247.067 204.8 245.333 207.267 244 209.8C240.133 216.467 236.667 223.2 233.6 230C230.667 236.667 228.067 243.4 225.8 250.2C228.6 255.267 230.667 261.4 232 268.6C233.333 275.667 234.2 282.867 234.6 290.2C235 297.533 235.2 304 235.2 309.6C235.2 313.333 235.133 316.467 235 319C235 321.533 235 323.133 235 323.8C233.933 336.333 232 345.733 229.2 352C226.4 358.133 221.533 361.2 214.6 361.2C211 361.2 208.4 358.933 206.8 354.4C205.333 349.867 204.6 344 204.6 336.8C204.6 329.333 205.2 321.067 206.4 312C207.733 302.8 209.467 293.533 211.6 284.2C213.733 274.867 215.933 266.4 218.2 258.8C216.733 254.533 215.2 251.267 213.6 249C212.133 246.6 210.667 245.533 209.2 245.8C206.267 246.333 203.4 249.2 200.6 254.4C197.933 259.6 195.4 266.133 193 274C190.733 281.867 188.6 290.2 186.6 299C184.6 307.8 182.8 316.2 181.2 324.2C179.6 333.4 177.8 342.133 175.8 350.4C173.933 358.667 172.2 366.333 170.6 373.4C169.8 373.933 168.933 374.333 168 374.6C167.2 375 166.4 375.2 165.6 375.2C163.2 375.2 161 373.533 159 370.2C161.667 361 164.133 351.067 166.4 340.4C168.667 329.6 170.533 318.667 172 307.6C173.467 296.4 174.2 285.733 174.2 275.6C174.2 269.067 173.667 262.467 172.6 255.8C171.667 249 170.067 242.733 167.8 237C165.667 231.267 162.867 226.667 159.4 223.2C155.933 219.6 151.8 217.8 147 217.8C142.6 217.8 138 219.667 133.2 223.4C128.4 227 123.667 231.733 119 237.6C114.467 243.333 110.267 249.533 106.4 256.2C102.667 261.933 99.2 268.067 96 274.6C92.8 281.133 90.2 287.733 88.2 294.4C86.3333 301.067 85.4 307.467 85.4 313.6C85.4 318.8 86.2667 323.733 88 328.4C89.7333 333.067 92.1333 336.867 95.2 339.8C98.4 342.733 102 344.2 106 344.2C110.133 344.2 114.4 342.867 118.8 340.2C123.333 337.4 127.6 333.867 131.6 329.6C135.733 325.2 139.267 320.533 142.2 315.6C145.267 310.667 147.4 305.933 148.6 301.4C149 299.8 149.2 298.2 149.2 296.6C149.2 291.533 147.467 286.933 144 282.8C140.667 278.667 136.133 276.6 130.4 276.6C128.133 276.6 125.667 277.067 123 278C120.333 278.8 117.6 280.2 114.8 282.2C112.133 284.067 109.533 286.667 107 290C104.467 293.333 102.4 296.867 100.8 300.6C99.2 304.2 98.4 307.533 98.4 310.6C98.4 313.667 99.2667 316 101 317.6C102.733 319.067 104.867 319.8 107.4 319.8C110.467 319.8 113.533 318.933 116.6 317.2C119.8 315.467 122.667 313.267 125.2 310.6C127.733 307.8 129.733 304.867 131.2 301.8C132.8 298.733 133.6 295.867 133.6 293.2C133.6 291.6 133.2 290.2 132.4 289C131.6 287.667 130.267 286.733 128.4 286.2C127.733 286.067 127.067 285.933 126.4 285.8C125.867 285.667 125.4 285.667 125 285.8C124.333 285.933 123.733 285.867 123.2 285.6C122.8 285.2 123.2 284.867 124.4 284.6C124.8 284.467 125.2 284.4 125.6 284.4C126 284.4 126.4 284.4 126.8 284.4C127.333 284.4 127.867 284.4 128.4 284.4C128.933 284.4 129.467 284.533 130 284.8C132.8 285.467 134.733 286.733 135.8 288.6C137 290.467 137.6 292.533 137.6 294.8C137.6 298.533 136.667 302.4 134.8 306.4C133.067 310.4 130.667 314.067 127.6 317.4C124.667 320.6 121.333 323.267 117.6 325.4C113.867 327.4 110.067 328.4 106.2 328.4C102.733 328.4 99.7333 327.333 97.2 325.2C94.8 322.933 93.6 319.533 93.6 315C93.6 309.133 95.3333 303.067 98.8 296.8C102.4 290.533 106.6 285.133 111.4 280.6C115.4 277.133 119.4 274.6 123.4 273C127.533 271.4 131.467 270.6 135.2 270.6C140.533 270.6 145.333 271.867 149.6 274.4C153.867 276.933 157.267 280.267 159.8 284.4C162.333 288.4 163.667 292.8 163.8 297.6C164.333 303.6 163 309.667 159.8 315.8C156.733 321.8 152.467 327.333 147 332.4C141.533 337.333 135.467 341.333 128.8 344.4C122.267 347.333 115.8 348.8 109.4 348.8C104.867 348.8 100.667 347.933 96.8 346.2C88.6667 342.6 82.7333 338.733 79 334.6C75.2667 330.467 72.8667 326 71.8 321.2C70.7333 316.267 70.2 310.8 70.2 304.8C70.4667 298.4 72.4 290.933 76 282.4C79.6 273.867 84.2 265.333 89.8 256.8C94.6 250 100.267 243.467 106.8 237.2C113.333 230.8 120.267 225.6 127.6 221.6C134.933 217.467 142.067 215.4 149 215.4C156.067 215.4 162 217.333 166.8 221.2C171.6 224.933 175.4 230.133 178.2 236.8C181 243.333 182.933 250.933 184 259.6C185.067 268.133 185.467 277.2 185.2 286.8C186.533 281.467 188 276.067 189.6 270.6C191.2 265 193.067 259.867 195.2 255.2C197.333 250.4 199.733 246.533 202.4 243.6C205.2 240.667 208.4 239.2 212 239.2C214.133 239.2 216.067 239.8 217.8 241C219.533 242.067 221.2 243.6 222.8 245.6C225.067 239.2 227.667 232.867 230.6 226.6C233.533 220.2 236.867 213.867 240.6 207.6C242.867 203.6 245.467 200.133 248.4 197.2C251.333 194.133 254.467 192.6 257.8 192.6C261.533 192.6 264.4 193.733 266.4 196C268.4 198.267 269.733 201.2 270.4 204.8C271.2 208.4 271.333 212.2 270.8 216.2C270 221.4 269.067 227.867 268 235.6C266.933 243.2 265.8 251.333 264.6 260C263.533 268.667 262.6 277.267 261.8 285.8C261.133 294.2 260.8 301.8 260.8 308.6C260.8 319.8 261.533 330.333 263 340.2C264.6 350.067 267.267 358.467 271 365.4C274.867 372.467 280.133 377.467 286.8 380.4C288.933 382.133 290 383.267 290 383.8ZM215.6 355.6C219.867 353.333 222.8 348.667 224.4 341.6C226.133 334.4 227 326.267 227 317.2C227 308.8 226.4 300.133 225.2 291.2C224.133 282.267 222.667 274.2 220.8 267C217.867 278.067 215.667 288.6 214.2 298.6C212.733 308.467 211.8 317 211.4 324.2C211 331.267 210.8 336.333 210.8 339.4C210.8 340.2 210.867 341.6 211 343.6C211.133 345.6 211.333 347.6 211.6 349.6C212 351.6 212.467 353.267 213 354.6C213.667 355.8 214.533 356.133 215.6 355.6ZM294.573 362.8C294.04 362.8 293.173 362.533 291.973 362C290.907 361.333 289.84 360.6 288.773 359.8C286.64 359.267 285.04 357.867 283.973 355.6C282.773 353.2 282.04 350.4 281.773 347.2C281.507 344 281.573 340.8 281.973 337.6C282.373 334.4 283.04 331.733 283.973 329.6C285.44 325.6 287.24 321.333 289.373 316.8C291.64 312.267 294.44 307.933 297.773 303.8C301.107 299.667 305.107 296.267 309.773 293.6C314.44 290.8 319.973 289.267 326.373 289C329.707 289 332.707 289.8 335.373 291.4C338.173 292.867 339.573 294.6 339.573 296.6C339.573 298.333 338.707 300.067 336.973 301.8C335.373 303.4 333.04 304.533 329.973 305.2C329.44 305.333 328.84 305.467 328.173 305.6C327.64 305.6 327.04 305.6 326.373 305.6C324.507 305.6 323.573 305.4 323.573 305C323.573 304.6 323.973 304.4 324.773 304.4C327.04 304.4 329.107 303.6 330.973 302C332.84 300.4 333.773 298.4 333.773 296C333.773 293.6 332.907 292.467 331.173 292.6C325.84 293.4 321.107 295.733 316.973 299.6C312.973 303.333 309.507 307.8 306.573 313C303.773 318.2 301.44 323.467 299.573 328.8C297.707 334.133 296.24 338.8 295.173 342.8C294.507 345.467 293.907 348.133 293.373 350.8C292.973 353.467 292.84 355.733 292.973 357.6C293.24 359.333 293.907 360.2 294.973 360.2C297.24 360.2 299.907 359 302.973 356.6C306.173 354.2 309.373 351.133 312.573 347.4C315.907 343.533 319.04 339.467 321.973 335.2C324.907 330.8 327.307 326.733 329.173 323C328.907 321.4 328.707 319.8 328.573 318.2C328.44 316.6 328.307 315 328.173 313.4C328.173 312.867 328.707 312.067 329.773 311C330.973 309.8 332.307 308.667 333.773 307.6C335.24 306.533 336.507 305.733 337.573 305.2C338.64 304.667 339.107 304.733 338.973 305.4C339.107 308.733 339.64 312.733 340.573 317.4C341.507 321.933 342.773 326.667 344.373 331.6C345.973 336.4 347.84 340.867 349.973 345C352.24 349.133 354.707 352.4 357.373 354.8C360.04 357.2 362.64 358.4 365.173 358.4C365.84 358.4 366.44 358.333 366.973 358.2C367.64 357.933 368.24 357.733 368.773 357.6C369.307 357.333 369.84 357.2 370.373 357.2C370.64 357.2 370.773 357.333 370.773 357.6C370.773 358.4 370.24 358.933 369.173 359.2C365.04 361.067 361.04 362 357.173 362C352.64 362 348.707 360.533 345.373 357.6C340.707 353.333 337.173 348.533 334.773 343.2C332.507 337.867 330.84 332.267 329.773 326.4C327.773 330.4 325.373 334.533 322.573 338.8C319.773 343.067 316.773 347.067 313.573 350.8C310.373 354.4 307.107 357.333 303.773 359.6C300.573 361.733 297.507 362.8 294.573 362.8ZM393.233 368.4C392.833 368.8 391.966 368.667 390.633 368C389.299 367.333 387.833 366.4 386.233 365.2C384.633 364 383.166 362.867 381.833 361.8C380.633 360.6 379.966 359.667 379.833 359C379.833 351.933 380.966 345.067 383.233 338.4C385.499 331.6 388.099 325.533 391.033 320.2C393.966 314.733 396.433 310.4 398.433 307.2C392.966 311.6 387.633 313.8 382.433 313.8C380.566 313.8 378.899 313.533 377.433 313C374.899 316.333 372.366 319.667 369.833 323C367.433 326.2 365.033 329.533 362.633 333C362.099 333.8 361.699 334.2 361.433 334.2C361.299 334.2 361.233 334.067 361.233 333.8C361.233 333.267 361.433 332.6 361.833 331.8C364.233 328.333 366.499 324.933 368.633 321.6C370.899 318.267 372.966 315 374.833 311.8C372.299 310.2 370.299 307.867 368.833 304.8C367.499 301.733 366.833 298.6 366.833 295.4C366.833 290.467 368.299 286.733 371.233 284.2C374.166 281.533 377.699 280.2 381.833 280.2C384.233 280.2 386.433 280.733 388.433 281.8C390.566 282.733 391.633 284.333 391.633 286.6C391.633 288.867 390.833 291.6 389.233 294.8C387.633 298 385.833 301.133 383.833 304.2C381.833 307.133 380.166 309.533 378.833 311.4C380.033 311.8 381.366 312 382.833 312C386.033 312 389.299 311.133 392.633 309.4C396.099 307.667 398.833 305.733 400.833 303.6C401.233 303.067 401.899 302.8 402.833 302.8C404.299 302.8 405.899 303.267 407.633 304.2C409.366 305.133 409.899 306 409.233 306.8C407.499 309.333 405.299 313.467 402.633 319.2C399.966 324.8 397.499 331.333 395.233 338.8C392.966 346.267 391.566 354.133 391.033 362.4C392.366 360 394.166 356.8 396.433 352.8C398.699 348.667 401.233 344.2 404.033 339.4C406.833 334.6 409.766 329.867 412.833 325.2C416.033 320.4 419.233 316.067 422.433 312.2C423.099 311.4 423.633 311.133 424.033 311.4C424.433 311.667 424.366 312.133 423.833 312.8C420.633 317.067 417.433 321.8 414.233 327C411.033 332.067 408.033 337.267 405.233 342.6C402.433 347.8 399.966 352.667 397.833 357.2C395.699 361.733 394.166 365.467 393.233 368.4ZM375.833 310.2C377.166 308.333 378.699 305.6 380.433 302C382.299 298.4 383.233 295.267 383.233 292.6C383.233 290.867 382.766 289.6 381.833 288.8C381.033 288 380.166 287.6 379.233 287.6C376.833 287.6 374.833 288.867 373.233 291.4C371.633 293.8 370.833 296.467 370.833 299.4C370.833 301.533 371.233 303.6 372.033 305.6C372.966 307.6 374.233 309.133 375.833 310.2ZM437.898 293.2C435.365 293.2 433.432 292.333 432.098 290.6C430.765 288.867 430.098 286.733 430.098 284.2C430.098 281.667 430.632 279.933 431.698 279C432.765 278.067 434.565 277.6 437.098 277.6C438.432 277.6 439.765 277.533 441.098 277.4C442.432 277.133 443.698 277 444.898 277C447.565 277 448.898 278 448.898 280C448.898 281.6 448.298 283.467 447.098 285.6C446.032 287.6 444.632 289.4 442.898 291C441.298 292.467 439.632 293.2 437.898 293.2ZM431.898 369.6C431.498 370 430.232 369.6 428.098 368.4C425.965 367.2 423.898 365.733 421.898 364C419.898 362.4 418.765 361.133 418.498 360.2C417.298 356.2 416.698 351 416.698 344.6C416.698 339 417.165 333.267 418.098 327.4C419.165 321.4 420.632 315.867 422.498 310.8C424.365 305.733 426.632 301.933 429.298 299.4C429.832 298.867 430.765 298.867 432.098 299.4C433.432 299.8 434.832 300.467 436.298 301.4C437.898 302.333 439.098 303.267 439.898 304.2C440.832 305.133 441.032 305.867 440.498 306.4C437.965 309.2 435.632 313.067 433.498 318C431.498 322.933 429.898 328.133 428.698 333.6C427.632 338.933 427.098 343.8 427.098 348.2C427.098 350.733 427.298 353.067 427.698 355.2C428.232 357.333 428.965 359 429.898 360.2C431.632 357 434.232 352.6 437.698 347C441.298 341.4 445.232 335.467 449.498 329.2C453.898 322.933 458.232 317.267 462.498 312.2C463.165 311.4 463.698 311.133 464.098 311.4C464.498 311.667 464.432 312.133 463.898 312.8C462.432 314.667 460.965 316.8 459.498 319.2C458.032 321.467 456.498 323.867 454.898 326.4C449.565 335.2 444.765 343.467 440.498 351.2C436.232 358.8 433.365 364.933 431.898 369.6ZM471.938 369.6C471.538 370 470.271 369.6 468.137 368.4C466.004 367.2 463.938 365.733 461.938 364C459.938 362.4 458.804 361.133 458.538 360.2C457.338 356.333 456.471 351.6 455.938 346C455.538 340.4 455.338 334.333 455.338 327.8C455.338 321 455.538 314 455.938 306.8C456.471 299.6 457.138 292.733 457.938 286.2C458.738 279.533 459.604 273.667 460.538 268.6C454.271 268.6 448.337 268.6 442.737 268.6C437.004 268.467 432.204 268.333 428.337 268.2C424.337 267.933 421.804 267.667 420.737 267.4C420.204 267.133 420.337 266.267 421.137 264.8C421.937 263.333 423.004 261.933 424.337 260.6C425.671 259.133 426.937 258.533 428.137 258.8C431.604 259.467 436.271 260.267 442.137 261.2C448.004 262.133 454.537 262.933 461.738 263.6C464.138 253.6 467.338 244.467 471.338 236.2C475.338 227.8 479.938 221.4 485.138 217C487.271 215.267 489.804 214.4 492.738 214.4C495.004 214.4 497.204 215.067 499.338 216.4C501.471 217.6 503.004 219.533 503.938 222.2C504.604 222.467 504.938 223.333 504.938 224.8C504.938 226.933 504.271 230 502.938 234C501.604 237.867 500.538 241.133 499.738 243.8C498.671 246.867 497.338 250.267 495.738 254C494.271 257.6 492.538 261.4 490.538 265.4C494.804 265.4 499.138 265.2 503.538 264.8C507.938 264.4 512.271 263.667 516.538 262.6C516.804 262.6 516.938 262.6 516.938 262.6C517.071 262.467 517.204 262.4 517.338 262.4C518.404 262.4 518.938 262.8 518.938 263.6C518.938 264.133 518.471 264.6 517.538 265C515.538 266.067 512.871 266.667 509.538 266.8C506.204 266.8 503.004 266.933 499.938 267.2L489.338 267.8C486.271 274.067 482.738 280.467 478.738 287C474.871 293.4 470.871 299.4 466.738 305C466.471 308.333 466.271 311.867 466.138 315.6C466.004 319.333 465.938 323.133 465.938 327C465.938 334.733 466.271 341.8 466.938 348.2C467.604 354.6 468.604 358.6 469.938 360.2C471.671 357 474.271 352.6 477.738 347C481.338 341.4 485.271 335.467 489.538 329.2C493.938 322.933 498.271 317.267 502.538 312.2C503.204 311.4 503.738 311.133 504.138 311.4C504.538 311.667 504.471 312.133 503.938 312.8C502.471 314.667 501.004 316.8 499.538 319.2C498.071 321.467 496.538 323.867 494.938 326.4C489.604 335.2 484.804 343.467 480.538 351.2C476.271 358.8 473.404 364.933 471.938 369.6ZM486.138 265.2C488.404 260.667 490.338 256.333 491.938 252.2C493.671 247.933 495.204 243.867 496.538 240C497.871 235.6 498.538 232 498.538 229.2C498.538 225.867 497.738 224.2 496.138 224.2C495.471 224.2 494.804 224.533 494.138 225.2C488.938 230 484.604 235.867 481.138 242.8C477.804 249.733 475.071 257 472.938 264.6C474.538 264.733 476.138 264.867 477.738 265C479.338 265 481.004 265 482.738 265C483.271 265.133 483.804 265.2 484.337 265.2C484.871 265.2 485.471 265.2 486.138 265.2ZM466.738 300C469.804 295.2 472.871 290.067 475.938 284.6C479.138 279.133 482.071 273.6 484.738 268C482.604 268 480.471 268.067 478.338 268.2C476.204 268.2 474.004 268.267 471.738 268.4C470.271 274 469.138 279.467 468.338 284.8C467.671 290.133 467.138 295.2 466.738 300ZM522.177 368C518.31 368 514.843 366.6 511.777 363.8C508.843 361.133 506.31 357.733 504.177 353.6C502.177 349.333 500.643 345 499.577 340.6C498.51 336.067 497.977 332.067 497.977 328.6C497.977 317.933 499.377 308.333 502.177 299.8C505.11 291.133 509.377 285.267 514.977 282.2C518.177 280.733 521.577 280 525.177 280H527.577C528.243 280 528.843 280 529.377 280C530.043 280 530.71 280.133 531.377 280.4C532.843 281.333 533.577 281.867 533.577 282C533.577 282.133 532.51 282.2 530.377 282.2C524.377 282.2 519.71 283.8 516.377 287C513.177 290.067 510.843 294 509.377 298.8C508.043 303.467 507.177 308.333 506.777 313.4C506.51 318.333 506.377 322.667 506.377 326.4C506.377 328.133 506.577 330.533 506.977 333.6C507.377 336.533 508.11 339.533 509.177 342.6C510.377 345.533 512.043 348.067 514.177 350.2C516.443 352.2 519.377 353.2 522.977 353.2C526.443 353.2 529.51 351.733 532.177 348.8C534.843 345.733 536.977 342.2 538.577 338.2C540.177 334.067 540.977 330.4 540.977 327.2C540.977 322.933 540.51 318.533 539.577 314C538.643 309.333 537.177 305.467 535.177 302.4C531.71 297.333 527.977 294.8 523.977 294.8C519.043 294.8 516.577 298.4 516.577 305.6C516.577 313.733 518.043 317.8 520.977 317.8C521.643 317.8 522.31 317.467 522.977 316.8C523.777 316.133 524.377 315.4 524.777 314.6C525.043 314.067 525.31 313.6 525.577 313.2C525.843 312.8 526.11 312.467 526.377 312.2C526.643 311.933 526.777 311.733 526.777 311.6C527.443 311.6 527.777 312.067 527.777 313C527.777 315.4 526.777 317.4 524.777 319C522.91 320.467 521.243 321.2 519.777 321.2C517.51 321.2 515.843 320 514.777 317.6C513.71 315.067 513.177 311.533 513.177 307C513.177 296.733 516.443 291.6 522.977 291.6C528.177 291.6 532.91 294.333 537.177 299.8C539.31 302.867 541.043 306.4 542.377 310.4C543.71 314.267 544.51 318.467 544.777 323C544.777 324.067 544.777 325.2 544.777 326.4C544.91 327.467 544.977 328.733 544.977 330.2C544.977 333.267 544.51 336.933 543.577 341.2C542.777 345.467 541.443 349.667 539.577 353.8C537.843 357.8 535.51 361.133 532.577 363.8C529.643 366.6 526.177 368 522.177 368ZM585.789 366.6C583.789 366.6 581.789 365.8 579.789 364.2C577.922 362.733 575.989 361 573.989 359C572.122 357 570.322 355.267 568.589 353.8C566.856 352.333 565.256 351.733 563.789 352C561.122 355.467 558.789 357.733 556.789 358.8C554.789 359.733 552.856 360.2 550.989 360.2C550.189 360.2 549.922 359.4 550.189 357.8C550.456 356.2 551.189 354.4 552.389 352.4C553.456 350.4 554.789 348.6 556.389 347C557.989 345.4 559.722 344.6 561.589 344.6C562.656 344.6 563.789 345 564.989 345.8C568.589 341.133 572.856 335.4 577.789 328.6C582.722 321.8 587.789 315.133 592.989 308.6C591.922 308.2 590.189 307.8 587.789 307.4C585.389 307 582.989 306.667 580.589 306.4C578.189 306 576.389 305.8 575.189 305.8C573.056 305.8 570.922 306.333 568.789 307.4C566.789 308.333 564.322 310.467 561.389 313.8C559.122 316.467 556.789 319.467 554.389 322.8C553.856 323.867 553.256 324.4 552.589 324.4C552.322 324.4 552.389 324 552.789 323.2C553.189 322.267 554.256 320.533 555.989 318C556.789 316.8 557.989 314.8 559.589 312C561.189 309.067 562.989 306 564.989 302.8C567.122 299.6 569.256 296.867 571.389 294.6C573.522 292.333 575.456 291.2 577.189 291.2C579.589 291.2 581.922 292.133 584.189 294C586.589 295.733 588.922 297.6 591.189 299.6C593.456 301.467 595.589 302.6 597.589 303C597.722 302.067 598.322 300.933 599.389 299.6C600.589 298.133 601.922 296.8 603.389 295.6C604.856 294.4 606.122 293.667 607.189 293.4C607.589 293.267 607.989 293.133 608.389 293C608.922 292.867 609.456 292.8 609.989 292.8C611.722 292.8 612.589 293.467 612.589 294.8C612.589 295.467 612.322 296.4 611.789 297.6C611.256 298.8 610.322 300.267 608.989 302C606.989 304.8 605.056 306.8 603.189 308C601.322 309.067 599.456 309.6 597.589 309.6C597.189 309.6 596.722 309.6 596.189 309.6C595.789 309.467 595.322 309.333 594.789 309.2C592.922 311.733 590.456 315.133 587.389 319.4C584.456 323.667 581.256 328.2 577.789 333C574.456 337.667 571.189 342.133 567.989 346.4C569.589 346.8 571.522 347.333 573.789 348C576.189 348.533 578.656 348.8 581.189 348.8C583.856 348.8 586.456 348.267 588.989 347.2C591.656 346 593.989 343.933 595.989 341C597.989 337.667 599.722 334.867 601.189 332.6C602.656 330.2 604.522 327.467 606.789 324.4C609.056 321.333 612.322 317.267 616.589 312.2C617.256 311.4 617.789 311.133 618.189 311.4C618.589 311.667 618.522 312.133 617.989 312.8C616.389 315.067 614.856 317.267 613.389 319.4C611.922 321.4 610.456 323.533 608.989 325.8C605.522 331.267 602.389 337.2 599.589 343.6C596.789 349.867 594.722 355.333 593.389 360C592.722 362.533 591.656 364.267 590.189 365.2C588.722 366.133 587.256 366.6 585.789 366.6ZM642.039 366.6C640.039 366.6 638.039 365.8 636.039 364.2C634.172 362.733 632.239 361 630.239 359C628.372 357 626.572 355.267 624.839 353.8C623.106 352.333 621.506 351.733 620.039 352C617.372 355.467 615.039 357.733 613.039 358.8C611.039 359.733 609.106 360.2 607.239 360.2C606.439 360.2 606.172 359.4 606.439 357.8C606.706 356.2 607.439 354.4 608.639 352.4C609.706 350.4 611.039 348.6 612.639 347C614.239 345.4 615.972 344.6 617.839 344.6C618.906 344.6 620.039 345 621.239 345.8C624.839 341.133 629.106 335.4 634.039 328.6C638.972 321.8 644.039 315.133 649.239 308.6C648.172 308.2 646.439 307.8 644.039 307.4C641.639 307 639.239 306.667 636.839 306.4C634.439 306 632.639 305.8 631.439 305.8C629.306 305.8 627.172 306.333 625.039 307.4C623.039 308.333 620.572 310.467 617.639 313.8C615.372 316.467 613.039 319.467 610.639 322.8C610.106 323.867 609.506 324.4 608.839 324.4C608.572 324.4 608.639 324 609.039 323.2C609.439 322.267 610.506 320.533 612.239 318C613.039 316.8 614.239 314.8 615.839 312C617.439 309.067 619.239 306 621.239 302.8C623.372 299.6 625.506 296.867 627.639 294.6C629.772 292.333 631.706 291.2 633.439 291.2C635.839 291.2 638.172 292.133 640.439 294C642.839 295.733 645.172 297.6 647.439 299.6C649.706 301.467 651.839 302.6 653.839 303C653.972 302.067 654.572 300.933 655.639 299.6C656.839 298.133 658.172 296.8 659.639 295.6C661.106 294.4 662.372 293.667 663.439 293.4C663.839 293.267 664.239 293.133 664.639 293C665.172 292.867 665.706 292.8 666.239 292.8C667.972 292.8 668.839 293.467 668.839 294.8C668.839 295.467 668.572 296.4 668.039 297.6C667.506 298.8 666.572 300.267 665.239 302C663.239 304.8 661.306 306.8 659.439 308C657.572 309.067 655.706 309.6 653.839 309.6C653.439 309.6 652.972 309.6 652.439 309.6C652.039 309.467 651.572 309.333 651.039 309.2C649.172 311.733 646.706 315.133 643.639 319.4C640.706 323.667 637.506 328.2 634.039 333C630.706 337.667 627.439 342.133 624.239 346.4C625.839 346.8 627.772 347.333 630.039 348C632.439 348.533 634.906 348.8 637.439 348.8C640.106 348.8 642.706 348.267 645.239 347.2C647.906 346 650.239 343.933 652.239 341C654.239 337.667 655.972 334.867 657.439 332.6C658.906 330.2 660.772 327.467 663.039 324.4C665.306 321.333 668.572 317.267 672.839 312.2C673.506 311.4 674.039 311.133 674.439 311.4C674.839 311.667 674.772 312.133 674.239 312.8C672.639 315.067 671.106 317.267 669.639 319.4C668.172 321.4 666.706 323.533 665.239 325.8C661.772 331.267 658.639 337.2 655.839 343.6C653.039 349.867 650.972 355.333 649.639 360C648.972 362.533 647.906 364.267 646.439 365.2C644.972 366.133 643.506 366.6 642.039 366.6ZM692.489 368C688.622 368 685.156 366.6 682.089 363.8C679.156 361.133 676.622 357.733 674.489 353.6C672.489 349.333 670.956 345 669.889 340.6C668.822 336.067 668.289 332.067 668.289 328.6C668.289 317.933 669.689 308.333 672.489 299.8C675.422 291.133 679.689 285.267 685.289 282.2C688.489 280.733 691.889 280 695.489 280H697.889C698.556 280 699.156 280 699.689 280C700.356 280 701.022 280.133 701.689 280.4C703.156 281.333 703.889 281.867 703.889 282C703.889 282.133 702.822 282.2 700.689 282.2C694.689 282.2 690.022 283.8 686.689 287C683.489 290.067 681.156 294 679.689 298.8C678.356 303.467 677.489 308.333 677.089 313.4C676.822 318.333 676.689 322.667 676.689 326.4C676.689 328.133 676.889 330.533 677.289 333.6C677.689 336.533 678.422 339.533 679.489 342.6C680.689 345.533 682.356 348.067 684.489 350.2C686.756 352.2 689.689 353.2 693.289 353.2C696.756 353.2 699.822 351.733 702.489 348.8C705.156 345.733 707.289 342.2 708.889 338.2C710.489 334.067 711.289 330.4 711.289 327.2C711.289 322.933 710.822 318.533 709.889 314C708.956 309.333 707.489 305.467 705.489 302.4C702.022 297.333 698.289 294.8 694.289 294.8C689.356 294.8 686.889 298.4 686.889 305.6C686.889 313.733 688.356 317.8 691.289 317.8C691.956 317.8 692.622 317.467 693.289 316.8C694.089 316.133 694.689 315.4 695.089 314.6C695.356 314.067 695.622 313.6 695.889 313.2C696.156 312.8 696.422 312.467 696.689 312.2C696.956 311.933 697.089 311.733 697.089 311.6C697.756 311.6 698.089 312.067 698.089 313C698.089 315.4 697.089 317.4 695.089 319C693.222 320.467 691.556 321.2 690.089 321.2C687.822 321.2 686.156 320 685.089 317.6C684.022 315.067 683.489 311.533 683.489 307C683.489 296.733 686.756 291.6 693.289 291.6C698.489 291.6 703.222 294.333 707.489 299.8C709.622 302.867 711.356 306.4 712.689 310.4C714.022 314.267 714.822 318.467 715.089 323C715.089 324.067 715.089 325.2 715.089 326.4C715.222 327.467 715.289 328.733 715.289 330.2C715.289 333.267 714.822 336.933 713.889 341.2C713.089 345.467 711.756 349.667 709.889 353.8C708.156 357.8 705.822 361.133 702.889 363.8C699.956 366.6 696.489 368 692.489 368Z" fill="black"/>
<defs>
<clipPath id="clip0_1_43">
<rect width="97.4841" height="93.8235" fill="white" transform="translate(369.686 62.2647)"/>
</clipPath>
</defs>
</svg>
